<?xml version="1.0" standalone="no"?>
<!DOCTYPE svg PUBLIC "-//W3C//DTD SVG 20010904//EN"
 "http://www.w3.org/TR/2001/REC-SVG-20010904/DTD/svg10.dtd">
<svg version="1.0" xmlns="http://www.w3.org/2000/svg"
 width="1129.000000pt" height="673.000000pt" viewBox="0 0 1129.000000 673.000000"
 preserveAspectRatio="xMidYMid meet">

<g transform="translate(0.000000,673.000000) scale(0.100000,-0.100000)"
fill="#000000" stroke="none">
<path d="M4254 6467 c-2 -8 -4 -52 -2 -98 l3 -84 95 0 95 0 0 95 0 95 -93 3
c-71 2 -94 0 -98 -11z m56 -87 c0 -73 -2 -80 -20 -80 -18 0 -20 7 -20 80 0 73
2 80 20 80 18 0 20 -7 20 -80z m120 0 l0 -80 -50 0 -50 0 0 80 0 80 50 0 50 0
0 -80z"/>
<path d="M5070 6385 l0 -85 45 0 c73 0 108 46 89 118 -8 29 -52 52 -99 52
l-35 0 0 -85z m100 45 c40 -40 14 -110 -41 -110 l-29 0 0 65 c0 63 1 65 25 65
14 0 34 -9 45 -20z"/>
<path d="M6180 6435 c0 -8 -7 -15 -15 -15 -8 0 -15 -4 -15 -10 0 -5 5 -10 10
-10 6 0 10 -14 10 -31 0 -17 5 -39 10 -50 11 -20 50 -27 50 -9 0 6 -7 10 -15
10 -11 0 -15 11 -15 40 0 29 4 40 15 40 8 0 15 5 15 10 0 6 -7 10 -15 10 -8 0
-15 7 -15 15 0 8 -4 15 -10 15 -5 0 -10 -7 -10 -15z"/>
<path d="M5256 6404 c-36 -35 -10 -104 39 -104 46 0 70 53 45 101 -13 23 -62
26 -84 3z m69 -44 c0 -32 -2 -35 -30 -35 -24 0 -31 5 -33 23 -6 38 5 54 35 50
25 -3 28 -7 28 -38z"/>
<path d="M5397 6402 c-36 -40 -9 -102 45 -102 14 0 31 7 38 15 16 19 5 34 -12
17 -33 -33 -78 1 -63 48 7 22 44 27 63 8 17 -17 28 -2 12 17 -17 21 -63 19
-83 -3z"/>
<path d="M5520 6379 c0 -53 15 -79 45 -79 34 0 41 18 8 22 -26 3 -28 7 -31 51
-4 57 -22 63 -22 6z"/>
<path d="M5608 6373 c-5 -52 -1 -73 13 -73 5 0 9 27 9 60 0 71 -16 80 -22 13z"/>
<path d="M5660 6358 c0 -32 4 -58 10 -58 6 0 10 12 10 28 0 60 21 90 49 72 7
-4 16 -28 18 -54 7 -60 21 -59 25 1 2 37 7 49 22 51 24 5 36 -14 36 -60 0 -21
5 -38 10 -38 13 0 13 76 0 101 -11 20 -54 26 -65 9 -5 -8 -11 -8 -19 -1 -7 6
-31 9 -54 8 l-42 -1 0 -58z"/>
<path d="M5896 6404 c-9 -8 -16 -28 -16 -44 0 -47 38 -72 84 -54 28 11 17 21
-21 20 -28 -1 -38 3 -41 17 -3 14 4 17 42 17 33 0 46 4 46 14 0 22 -29 46 -55
46 -13 0 -31 -7 -39 -16z m74 -24 c0 -6 -16 -10 -35 -10 -38 0 -46 13 -18 29
19 10 53 -2 53 -19z"/>
<path d="M6020 6360 c0 -71 16 -80 22 -12 5 51 1 72 -13 72 -5 0 -9 -27 -9
-60z"/>
<path d="M6055 6411 c-3 -5 7 -11 22 -13 26 -3 28 -7 31 -50 2 -27 7 -48 13
-48 12 0 12 76 -1 101 -11 20 -54 26 -65 10z"/>
<path d="M6267 6413 c-18 -17 -5 -44 28 -57 19 -8 35 -19 35 -24 0 -18 -28
-21 -49 -5 -27 19 -38 11 -16 -11 34 -34 102 -6 78 32 -5 10 -19 19 -29 20
-28 6 -40 20 -26 34 8 8 15 8 27 -2 17 -14 31 -8 20 9 -7 12 -58 15 -68 4z"/>
<path d="M394 6346 c-30 -30 -34 -40 -34 -86 0 -47 4 -56 36 -86 30 -29 43
-34 84 -34 41 0 54 5 84 34 32 30 36 39 36 86 0 46 -4 56 -34 86 -30 30 -40
34 -86 34 -46 0 -56 -4 -86 -34z m146 -13 c19 -18 33 -41 36 -64 5 -31 1 -42
-24 -70 -25 -28 -37 -34 -72 -34 -35 0 -47 6 -72 34 -25 28 -29 39 -24 70 7
46 55 91 96 91 18 0 41 -11 60 -27z"/>
<path d="M448 6338 c-16 -5 -28 -16 -28 -24 0 -16 16 -19 25 -4 3 6 19 10 35
10 16 0 32 -4 35 -10 9 -15 25 -12 25 4 0 10 -56 41 -64 35 -1 0 -13 -5 -28
-11z"/>
<path d="M770 6265 c0 -50 4 -85 10 -85 6 0 10 13 10 29 0 16 6 34 13 40 11 8
18 2 36 -29 12 -22 29 -40 37 -40 19 0 18 5 -11 48 -32 46 -31 59 2 94 41 43
6 35 -39 -9 l-38 -37 0 37 c0 20 -4 37 -10 37 -6 0 -10 -35 -10 -85z"/>
<path d="M1518 6340 c-22 -13 -40 -72 -32 -104 13 -52 93 -76 127 -38 21 23
21 32 2 32 -8 0 -15 -4 -15 -10 0 -5 -11 -12 -25 -16 -63 -16 -92 86 -34 117
15 7 27 5 49 -8 37 -21 53 -8 21 18 -25 20 -66 24 -93 9z"/>
<path d="M1660 6265 c0 -69 3 -85 15 -85 12 0 15 13 16 58 l0 57 22 -42 c11
-24 28 -43 37 -43 9 0 26 19 37 43 l22 42 0 -57 c1 -45 4 -58 16 -58 12 0 15
16 15 86 0 76 -2 85 -17 82 -10 -2 -29 -24 -43 -51 -14 -26 -28 -47 -31 -47
-3 0 -16 23 -29 50 -16 33 -30 50 -42 50 -16 0 -18 -9 -18 -85z"/>
<path d="M1886 6334 c-30 -30 -17 -56 38 -79 26 -11 36 -21 34 -33 -4 -22 -46
-28 -54 -8 -8 20 -34 21 -34 1 0 -38 82 -47 105 -11 21 32 11 51 -36 70 -40
16 -51 42 -23 53 10 4 22 -1 29 -10 15 -21 35 -22 35 -2 0 32 -67 46 -94 19z"/>
<path d="M920 6280 c-8 -15 -8 -20 3 -20 7 0 18 5 24 11 13 13 43 5 43 -11 0
-5 -13 -10 -28 -10 -32 0 -52 -16 -52 -42 0 -19 25 -27 78 -26 30 1 32 3 32
40 0 58 -14 78 -55 78 -24 0 -37 -6 -45 -20z m68 -62 c-7 -20 -48 -23 -48 -4
0 11 9 16 26 16 16 0 24 -5 22 -12z"/>
<path d="M1050 6238 c0 -45 3 -58 15 -58 11 0 15 11 15 40 0 29 5 42 20 50 30
16 24 26 -15 26 l-35 0 0 -58z"/>
<path d="M1157 6282 c-36 -40 -9 -102 45 -102 14 0 31 7 38 15 10 13 7 14 -26
12 -29 -1 -39 2 -42 15 -3 14 6 17 42 20 45 3 45 3 33 28 -16 32 -66 39 -90
12z m71 -19 c2 -9 -7 -13 -27 -13 -30 0 -39 9 -24 24 11 10 46 3 51 -11z"/>
<path d="M1290 6238 c0 -32 4 -58 10 -58 6 0 10 17 10 39 0 41 20 67 45 57 10
-4 15 -19 15 -51 0 -33 4 -45 15 -45 11 0 15 11 15 41 0 64 -13 79 -65 77
l-45 -2 0 -58z"/>
<path d="M315 5771 c-11 -5 -31 -21 -45 -36 -25 -26 -25 -29 -25 -196 l0 -169
33 -32 32 -33 1310 0 1310 0 32 33 33 32 0 170 0 170 -33 32 -32 33 -1298 2
c-713 1 -1306 -2 -1317 -6z m214 -145 c56 -29 66 -99 22 -148 -61 -68 -166
-28 -166 63 0 34 6 46 33 70 36 32 69 36 111 15z m318 -21 c30 -21 37 -59 17
-100 -9 -19 -13 -39 -9 -44 3 -6 -1 -11 -9 -11 -9 0 -16 5 -16 10 0 6 -15 10
-34 10 -42 0 -66 29 -66 77 0 61 66 94 117 58z m193 5 c0 -5 -4 -10 -10 -10
-5 0 -10 5 -10 10 0 6 5 10 10 10 6 0 10 -4 10 -10z m170 -32 l0 -41 23 21
c32 30 46 28 17 -3 l-24 -25 29 -30 c33 -35 14 -42 -22 -8 l-23 21 0 -21 c0
-12 -4 -22 -10 -22 -6 0 -10 32 -10 75 0 43 4 75 10 75 6 0 10 -19 10 -42z
m252 25 c10 -9 18 -20 18 -25 0 -14 -28 -9 -34 7 -7 18 -47 20 -64 3 -7 -7
-12 -26 -12 -43 0 -17 5 -36 12 -43 15 -15 50 -16 65 -1 6 6 17 9 23 7 23 -7
-20 -38 -53 -38 -38 0 -50 7 -66 38 -14 27 -7 69 16 95 20 22 71 22 95 0z
m378 -13 c0 -5 7 -10 15 -10 8 0 15 -4 15 -10 0 -5 -7 -10 -15 -10 -10 0 -15
-11 -15 -35 0 -24 5 -35 15 -35 8 0 15 -4 15 -10 0 -16 -47 -11 -54 6 -3 9 -6
29 -6 45 0 16 -5 29 -12 29 -6 0 -3 9 7 20 20 22 35 26 35 10z m-920 -56 c0
-41 2 -45 23 -42 18 2 23 10 25 46 5 61 22 52 22 -13 l0 -55 -40 0 c-29 0 -42
5 -50 19 -11 22 -14 74 -3 84 16 16 23 4 23 -39z m120 -9 c0 -30 -4 -55 -10
-55 -5 0 -10 25 -10 55 0 30 5 55 10 55 6 0 10 -25 10 -55z m116 38 c12 -12
13 -18 4 -21 -7 -3 -16 1 -20 8 -14 22 -45 7 -48 -24 -5 -37 16 -50 46 -30 22
15 24 14 20 -3 -2 -14 -12 -18 -43 -18 -34 0 -41 4 -49 27 -20 57 48 103 90
61z m404 9 c0 -4 -9 -13 -20 -20 -14 -8 -20 -23 -20 -47 0 -19 -4 -35 -10 -35
-5 0 -10 24 -10 53 0 53 1 54 30 55 17 0 30 -2 30 -6z m98 -4 c7 -7 12 -20 12
-30 0 -14 -8 -18 -40 -18 -43 0 -52 -13 -21 -30 13 -7 22 -7 26 0 3 5 13 10
22 10 13 0 13 -3 3 -15 -15 -18 -61 -20 -78 -3 -17 17 -15 64 4 82 18 19 55
21 72 4z m111 3 c7 -5 16 -30 18 -55 l6 -47 -49 3 c-45 3 -49 5 -49 28 0 20 7
27 33 35 17 5 32 13 32 17 0 12 -35 9 -48 -4 -17 -17 -28 -2 -12 17 14 16 47
20 69 6z m199 -3 c7 -7 12 -20 12 -30 0 -14 -8 -18 -40 -18 -43 0 -52 -13 -21
-30 13 -7 22 -7 26 0 3 5 13 10 22 10 13 0 13 -3 3 -15 -15 -18 -61 -20 -78
-3 -17 17 -15 64 4 82 18 19 55 21 72 4z"/>
<path d="M470 5565 c0 -8 -7 -15 -15 -15 -8 0 -15 -4 -15 -10 0 -5 7 -10 15
-10 8 0 15 -7 15 -15 0 -8 5 -15 10 -15 6 0 10 7 10 15 0 8 7 15 15 15 8 0 15
5 15 10 0 6 -7 10 -15 10 -8 0 -15 7 -15 15 0 8 -4 15 -10 15 -5 0 -10 -7 -10
-15z"/>
<path d="M766 5584 c-30 -29 -12 -94 25 -94 17 0 18 3 9 20 -8 16 -8 20 4 20
7 0 17 -7 20 -16 3 -8 10 -12 16 -9 14 9 13 68 -2 83 -17 17 -54 15 -72 -4z"/>
<path d="M1597 5554 c-15 -15 -6 -24 24 -24 20 0 29 4 27 13 -5 14 -40 21 -51
11z"/>
<path d="M1714 5509 c-9 -16 18 -30 33 -17 7 6 13 14 13 19 0 13 -38 11 -46
-2z"/>
<path d="M1907 5554 c-15 -15 -6 -24 24 -24 20 0 29 4 27 13 -5 14 -40 21 -51
11z"/>
<path d="M3264 5607 c-3 -8 -4 -43 -2 -78 l3 -64 95 0 95 0 0 75 0 75 -93 3
c-72 2 -94 0 -98 -11z m176 -11 c0 -2 -18 -15 -40 -30 l-40 -26 -40 26 c-22
15 -40 28 -40 30 0 2 36 4 80 4 44 0 80 -2 80 -4z m-107 -58 c27 -19 27 -19
55 0 52 36 52 36 52 -12 l0 -46 -80 0 -80 0 0 46 c0 48 0 48 53 12z"/>
<path d="M5003 5255 c0 -44 2 -61 4 -37 2 23 2 59 0 80 -2 20 -4 1 -4 -43z"/>
<path d="M5132 5314 c-12 -8 -22 -19 -22 -25 0 -5 9 0 20 11 24 24 38 25 68 4
13 -9 22 -11 22 -4 0 9 -40 30 -58 30 -4 0 -18 -7 -30 -16z"/>
<path d="M5703 5255 c0 -44 2 -61 4 -37 2 23 2 59 0 80 -2 20 -4 1 -4 -43z"/>
<path d="M5860 5320 c0 -5 5 -10 10 -10 6 0 10 5 10 10 0 6 -4 10 -10 10 -5 0
-10 -4 -10 -10z"/>
<path d="M4621 5248 c2 -77 6 -69 11 20 2 28 0 52 -4 52 -5 0 -7 -33 -7 -72z"/>
<path d="M4821 5298 c0 -10 -7 -18 -13 -18 -10 0 -10 -2 -1 -8 6 -4 13 -25 15
-47 2 -31 8 -41 23 -43 18 -2 18 -2 3 8 -12 7 -18 23 -18 45 0 24 5 35 18 38
15 4 15 5 0 6 -9 0 -19 9 -21 19 -4 16 -5 16 -6 0z"/>
<path d="M6038 5283 c-2 -5 -1 -24 3 -43 l6 -35 2 33 c1 23 6 32 19 32 14 0
15 2 2 10 -18 12 -28 12 -32 3z"/>
<path d="M4693 5263 c-3 -10 -8 -21 -10 -25 -10 -19 6 -5 21 17 9 14 12 25 6
25 -6 0 -13 -8 -17 -17z"/>
<path d="M4753 5270 c20 -13 23 -50 5 -68 -17 -17 -45 -15 -57 6 -6 9 -11 12
-11 6 0 -21 29 -36 55 -30 42 11 46 83 4 93 -8 3 -7 0 4 -7z"/>
<path d="M4895 5270 c-3 -5 -2 -10 4 -10 5 0 13 5 16 10 3 6 2 10 -4 10 -5 0
-13 -4 -16 -10z"/>
<path d="M4950 5273 c22 -11 9 -32 -22 -35 -28 -2 -33 -7 -33 -28 0 -19 6 -26
25 -27 25 -3 25 -3 3 7 -34 14 -29 40 6 40 25 0 30 -5 34 -27 3 -16 4 -6 3 21
-1 31 -6 50 -14 52 -7 1 -8 0 -2 -3z"/>
<path d="M5263 5263 c-3 -10 -8 -21 -10 -25 -10 -19 6 -5 21 17 9 14 12 25 6
25 -6 0 -13 -8 -17 -17z"/>
<path d="M5323 5270 c20 -13 23 -50 5 -68 -17 -17 -45 -15 -57 6 -6 9 -11 12
-11 6 0 -21 29 -36 55 -30 42 11 46 83 4 93 -8 3 -7 0 4 -7z"/>
<path d="M5382 5225 c1 -46 2 -47 5 -10 2 22 11 45 20 52 13 10 13 12 -6 10
-19 -1 -21 -7 -19 -52z"/>
<path d="M5438 5273 c7 -3 13 -24 13 -51 l2 -47 7 43 c3 24 12 47 19 51 7 4
-2 8 -21 8 -18 0 -27 -2 -20 -4z"/>
<path d="M5507 5273 c6 -5 14 -29 16 -53 l4 -45 -1 49 c-1 35 -5 51 -16 53
-10 3 -11 2 -3 -4z"/>
<path d="M5571 5205 c1 -52 3 -61 8 -35 4 23 9 31 14 23 11 -18 42 -16 58 4
13 15 12 15 -9 2 -16 -10 -26 -11 -40 -3 -24 15 -28 55 -7 70 16 12 16 13 -4
11 -19 -1 -21 -7 -20 -72z"/>
<path d="M5644 5264 c9 -8 16 -23 17 -32 0 -10 3 -12 5 -5 7 15 -13 53 -27 53
-6 0 -3 -7 5 -16z"/>
<path d="M5755 5270 c-3 -6 1 -7 9 -4 18 7 21 14 7 14 -6 0 -13 -4 -16 -10z"/>
<path d="M5808 5268 c19 -19 14 -27 -20 -30 -25 -2 -34 -8 -36 -26 -4 -27 23
-40 49 -24 13 9 19 8 22 -1 8 -18 8 58 1 77 -3 9 -11 16 -17 16 -7 0 -7 -4 1
-12z m12 -46 c0 -14 -23 -32 -42 -32 -11 0 -18 7 -18 20 0 16 7 20 30 20 17 0
30 -4 30 -8z"/>
<path d="M5863 5230 c0 -30 2 -43 4 -27 2 15 2 39 0 55 -2 15 -4 2 -4 -28z"/>
<path d="M5911 5230 l2 -55 7 45 c4 25 4 49 -1 55 -5 5 -8 -13 -8 -45z"/>
<path d="M5977 5269 c6 -8 13 -32 16 -54 4 -34 4 -32 3 9 -1 34 -6 51 -16 54
-12 4 -13 2 -3 -9z"/>
<path d="M6122 5258 c2 -14 12 -24 27 -28 14 -3 26 -11 29 -18 6 -18 -28 -27
-52 -12 -20 11 -20 11 -4 -5 11 -12 24 -16 42 -11 37 9 34 41 -5 55 -22 7 -29
15 -25 26 3 8 1 15 -5 15 -6 0 -9 -10 -7 -22z"/>
<path d="M6165 5270 c3 -5 8 -10 11 -10 2 0 4 5 4 10 0 6 -5 10 -11 10 -5 0
-7 -4 -4 -10z"/>
<path d="M5101 5254 c-1 -29 36 -74 60 -74 26 0 59 18 59 31 0 6 -7 3 -16 -5
-19 -20 -58 -21 -73 -2 -7 8 -16 27 -21 43 -7 22 -8 24 -9 7z"/>
<path d="M6057 5189 c7 -7 15 -10 18 -7 3 3 -2 9 -12 12 -14 6 -15 5 -6 -5z"/>
<path d="M434 5019 c-26 -13 -54 -60 -54 -92 0 -13 9 -36 21 -51 18 -23 28
-26 79 -26 51 0 61 3 79 26 62 79 -33 187 -125 143z m80 -20 c33 -15 51 -60
39 -96 -9 -27 -13 -28 -73 -28 -60 0 -64 1 -73 28 -13 39 -1 74 31 91 33 19
44 19 76 5z"/>
<path d="M480 4961 c-31 -9 -36 -54 -6 -59 22 -5 31 5 40 41 7 28 6 29 -34 18z
m10 -31 c0 -5 -4 -10 -10 -10 -5 0 -10 5 -10 10 0 6 5 10 10 10 6 0 10 -4 10
-10z"/>
<path d="M740 4945 l0 -75 33 0 c50 0 77 24 77 68 0 46 -8 58 -43 71 -62 24
-67 19 -67 -64z m90 36 c24 -46 -5 -101 -55 -101 -24 0 -25 3 -25 60 l0 60 35
0 c24 0 37 -6 45 -19z"/>
<path d="M1100 4945 c0 -80 17 -104 22 -32 3 37 6 42 28 42 22 0 26 -5 31 -45
l6 -45 1 46 c2 52 -15 75 -48 64 -17 -5 -20 -2 -20 19 0 14 -4 26 -10 26 -6 0
-10 -32 -10 -75z"/>
<path d="M1220 4947 l0 -74 39 -1 c44 -2 64 15 64 55 0 32 -30 56 -60 48 -19
-4 -23 -1 -23 20 0 14 -4 25 -10 25 -6 0 -10 -31 -10 -73z m85 -21 c0 -36 -26
-56 -49 -37 -16 14 -22 52 -9 65 4 4 19 6 33 4 20 -2 25 -8 25 -32z"/>
<path d="M1750 4989 c0 -27 -2 -30 -15 -19 -22 18 -63 -2 -71 -35 -10 -38 19
-65 67 -63 l39 1 0 74 c0 42 -4 73 -10 73 -5 0 -10 -14 -10 -31z m-5 -63 c0
-36 -26 -56 -49 -37 -16 14 -22 52 -9 65 4 4 19 6 33 4 20 -2 25 -8 25 -32z"/>
<path d="M894 4964 c-19 -15 -19 -16 1 -9 37 12 55 9 55 -9 0 -9 -12 -16 -32
-18 -28 -2 -33 -7 -33 -28 0 -23 4 -25 44 -26 l43 -2 -5 45 c-7 61 -34 79 -73
47z m54 -56 c-7 -21 -36 -34 -49 -21 -6 6 -8 16 -5 22 10 15 59 14 54 -1z"/>
<path d="M1005 4966 c-16 -11 -17 -17 -7 -29 7 -8 24 -18 37 -21 14 -4 25 -11
25 -17 0 -15 -30 -23 -43 -10 -17 17 -31 13 -17 -5 8 -8 25 -14 39 -12 36 4
37 49 2 58 -14 3 -27 12 -29 19 -4 11 3 13 28 8 28 -6 31 -5 20 8 -16 19 -31
19 -55 1z"/>
<path d="M1372 4964 c-41 -28 -19 -94 32 -94 29 0 46 18 46 50 0 26 -26 60
-46 60 -5 0 -20 -7 -32 -16z m63 -24 c6 -20 -10 -60 -25 -60 -25 0 -40 15 -40
39 0 34 7 41 36 41 14 0 25 -8 29 -20z"/>
<path d="M1490 4965 c-11 -13 -8 -14 19 -9 24 5 31 3 31 -10 0 -10 -8 -16 -24
-16 -13 0 -29 -7 -36 -15 -19 -23 5 -45 46 -42 33 2 34 3 34 44 0 32 -5 45
-19 53 -26 14 -36 13 -51 -5z m50 -66 c-13 -24 -43 -22 -48 4 -3 13 3 17 28
17 28 0 30 -2 20 -21z"/>
<path d="M1625 4970 c-3 -5 -12 -7 -20 -3 -12 4 -15 -5 -15 -46 0 -28 5 -51
10 -51 6 0 10 18 10 41 0 32 4 42 20 46 11 3 20 9 20 14 0 12 -17 11 -25 -1z"/>
<path d="M4621 4831 c-6 -39 -11 -77 -11 -85 0 -21 43 -21 60 -1 16 20 64 19
84 -1 22 -21 20 -77 -2 -97 -25 -23 -65 -21 -87 3 -25 27 -65 27 -58 0 10 -36
51 -60 105 -60 41 0 54 5 79 29 40 40 41 105 2 151 -25 30 -30 32 -80 28 -55
-5 -58 -2 -47 40 6 20 12 22 70 22 57 0 64 2 64 20 0 18 -7 20 -84 20 l-83 0
-12 -69z"/>
<path d="M384 4476 c-3 -8 -4 -25 -2 -38 2 -19 9 -23 38 -23 33 0 35 2 35 35
0 32 -3 35 -33 38 -21 2 -34 -2 -38 -12z m56 -26 c0 -13 -7 -20 -20 -20 -13 0
-20 7 -20 20 0 13 7 20 20 20 13 0 20 -7 20 -20z"/>
<path d="M480 4470 c0 -5 23 -10 50 -10 28 0 50 5 50 10 0 6 -22 10 -50 10
-27 0 -50 -4 -50 -10z"/>
<path d="M755 4455 c-14 -13 -25 -34 -25 -45 0 -24 18 -61 34 -72 19 -13 64
-9 81 8 22 22 10 32 -13 11 -38 -35 -82 -9 -82 48 0 26 6 39 25 51 23 15 27
15 50 0 34 -22 45 -19 16 4 -31 27 -57 25 -86 -5z"/>
<path d="M1330 4405 c0 -43 4 -75 10 -75 6 0 10 32 10 75 0 43 -4 75 -10 75
-6 0 -10 -32 -10 -75z"/>
<path d="M1490 4470 c0 -5 5 -10 10 -10 6 0 10 5 10 10 0 6 -4 10 -10 10 -5 0
-10 -4 -10 -10z"/>
<path d="M1670 4446 c0 -8 -6 -17 -12 -19 -10 -4 -10 -6 0 -6 6 -1 12 -14 12
-30 0 -44 10 -61 34 -61 19 1 19 2 4 11 -12 6 -18 22 -18 44 0 24 5 35 18 38
16 4 16 5 0 6 -10 0 -18 8 -18 16 0 8 -4 15 -10 15 -5 0 -10 -6 -10 -14z"/>
<path d="M480 4430 c0 -5 16 -10 35 -10 19 0 35 5 35 10 0 6 -16 10 -35 10
-19 0 -35 -4 -35 -10z"/>
<path d="M900 4420 c-25 -25 -26 -52 -2 -73 22 -20 53 -22 70 -5 17 17 15 64
-4 82 -21 21 -40 20 -64 -4z m66 -26 c9 -34 -18 -64 -44 -48 -35 23 -27 74 12
74 19 0 27 -7 32 -26z"/>
<path d="M1033 4433 c-20 -4 -23 -11 -23 -54 0 -60 18 -65 22 -6 2 35 7 43 26
45 20 3 22 -1 22 -42 0 -58 18 -61 22 -3 2 35 7 43 26 45 20 3 22 -1 22 -42 0
-25 5 -46 10 -46 6 0 10 18 10 39 0 45 -23 76 -49 65 -19 -8 -31 -8 -51 -2 -8
3 -25 3 -37 1z"/>
<path d="M1230 4431 c-8 -6 -18 -7 -22 -5 -4 3 -7 -28 -7 -68 1 -40 4 -61 6
-46 4 24 8 27 34 21 37 -7 59 11 59 48 0 45 -36 71 -70 50z m56 -37 c8 -33
-15 -59 -45 -49 -15 4 -21 15 -21 34 0 34 7 41 36 41 17 0 25 -7 30 -26z"/>
<path d="M1390 4425 c-11 -13 -8 -14 19 -9 24 5 31 3 31 -10 0 -10 -8 -16 -24
-16 -13 0 -29 -7 -36 -15 -19 -23 5 -45 46 -42 33 2 34 3 34 44 0 32 -5 45
-19 53 -26 14 -36 13 -51 -5z m50 -66 c-13 -24 -43 -22 -48 4 -3 13 3 17 28
17 28 0 30 -2 20 -21z"/>
<path d="M1563 4433 c-20 -4 -23 -11 -23 -54 0 -60 18 -65 22 -6 3 37 6 42 28
42 22 0 26 -5 31 -45 l6 -45 1 46 c2 44 -11 70 -32 68 -6 -1 -21 -4 -33 -6z"/>
<path d="M1755 4426 c-16 -11 -17 -17 -7 -29 7 -8 24 -18 37 -21 14 -4 25 -11
25 -17 0 -15 -30 -23 -43 -10 -17 17 -31 13 -17 -5 8 -8 25 -14 39 -12 36 4
37 49 2 58 -14 3 -27 12 -29 19 -4 11 3 13 28 8 28 -6 31 -5 20 8 -16 19 -31
19 -55 1z"/>
<path d="M1490 4380 c0 -27 5 -50 10 -50 6 0 10 23 10 50 0 28 -4 50 -10 50
-5 0 -10 -22 -10 -50z"/>
<path d="M384 4376 c-3 -8 -4 -25 -2 -38 2 -19 9 -23 38 -23 33 0 35 2 35 35
0 32 -3 35 -33 38 -21 2 -34 -2 -38 -12z m56 -26 c0 -13 -7 -20 -20 -20 -13 0
-20 7 -20 20 0 13 7 20 20 20 13 0 20 -7 20 -20z"/>
<path d="M480 4370 c0 -5 23 -10 50 -10 28 0 50 5 50 10 0 6 -22 10 -50 10
-27 0 -50 -4 -50 -10z"/>
<path d="M480 4330 c0 -5 16 -10 35 -10 19 0 35 5 35 10 0 6 -16 10 -35 10
-19 0 -35 -4 -35 -10z"/>
<path d="M7120 4040 c0 -5 12 -10 27 -10 l28 0 -27 -27 c-27 -26 -28 -26 -48
-8 -21 19 -21 18 -57 -18 -44 -43 -37 -64 7 -22 29 28 30 28 50 10 20 -18 21
-18 55 15 l35 34 0 -27 c0 -15 5 -27 10 -27 6 0 10 20 10 45 l0 45 -45 0 c-25
0 -45 -4 -45 -10z"/>
<path d="M4580 4030 c0 -5 9 -10 20 -10 18 0 20 -7 20 -65 0 -37 4 -65 10 -65
6 0 10 28 10 65 0 58 2 65 20 65 11 0 20 5 20 10 0 6 -22 10 -50 10 -27 0 -50
-4 -50 -10z"/>
<path d="M5098 4008 c0 -18 0 -44 1 -58 3 -31 -25 -53 -50 -39 -35 18 -17 69
25 69 15 0 17 3 8 12 -17 17 -60 -6 -68 -37 -10 -38 18 -64 67 -62 l39 1 0 73
c0 42 -4 73 -10 73 -5 0 -11 -15 -12 -32z"/>
<path d="M5150 4030 c0 -5 5 -10 10 -10 6 0 10 5 10 10 0 6 -4 10 -10 10 -5 0
-10 -4 -10 -10z"/>
<path d="M5903 3965 c-1 -61 1 -71 7 -42 8 45 23 62 44 54 11 -4 16 -19 16
-47 0 -22 5 -40 10 -40 6 0 10 20 10 44 0 54 -19 74 -55 58 -22 -10 -24 -9
-28 21 -2 18 -4 -4 -4 -48z"/>
<path d="M6020 4030 c0 -5 5 -10 10 -10 6 0 10 5 10 10 0 6 -4 10 -10 10 -5 0
-10 -4 -10 -10z"/>
<path d="M6760 3965 c0 -80 17 -104 22 -32 2 35 7 43 25 45 23 3 26 -3 36 -68
3 -14 5 -4 6 21 1 56 -19 80 -50 61 -17 -11 -19 -9 -19 18 0 16 -4 30 -10 30
-6 0 -10 -32 -10 -75z"/>
<path d="M5820 4006 c0 -8 -6 -17 -12 -19 -10 -4 -10 -6 0 -6 7 -1 12 -15 12
-34 0 -18 5 -38 12 -45 15 -15 38 -16 38 -2 0 6 -7 10 -15 10 -10 0 -15 11
-15 35 0 24 5 35 15 35 12 0 11 4 -5 20 -24 24 -30 25 -30 6z"/>
<path d="M6681 3999 c-7 -12 -7 -19 -1 -19 5 0 10 -18 10 -40 0 -27 5 -43 15
-47 23 -8 33 7 12 18 -20 12 -23 66 -4 71 9 2 8 7 -4 19 -15 15 -17 15 -28 -2z"/>
<path d="M4730 3990 c-8 -5 -18 -6 -22 -4 -4 3 -7 -19 -7 -48 1 -53 1 -53 9
-14 4 22 16 45 25 53 21 15 17 26 -5 13z"/>
<path d="M4786 3984 c-19 -18 -21 -65 -4 -82 17 -17 53 -15 68 3 14 17 0 21
-16 5 -14 -14 -44 -2 -44 16 0 10 12 14 40 14 45 0 50 10 20 40 -24 24 -43 25
-64 4z m62 -21 c2 -9 -7 -13 -27 -13 -30 0 -39 9 -24 24 11 10 46 3 51 -11z"/>
<path d="M4930 3991 c-8 -6 -18 -7 -22 -5 -4 3 -7 -19 -7 -48 1 -29 3 -42 6
-28 10 65 13 71 36 68 18 -2 23 -10 25 -45 2 -24 7 -43 13 -43 15 0 10 77 -7
94 -18 18 -24 19 -44 7z"/>
<path d="M5240 3991 c-8 -6 -18 -7 -22 -5 -4 3 -7 -19 -7 -48 1 -29 3 -42 6
-28 10 65 13 71 36 68 18 -2 23 -10 25 -45 2 -24 7 -43 13 -43 15 0 10 77 -7
94 -18 18 -24 19 -44 7z"/>
<path d="M5341 3986 c-8 -9 -11 -25 -8 -36 3 -11 2 -22 -2 -24 -4 -3 -7 -19
-6 -38 0 -26 5 -34 27 -42 31 -11 58 5 58 34 0 19 -19 30 -51 30 -11 0 -17 5
-14 10 4 6 10 8 15 5 16 -10 39 7 49 36 7 21 7 29 -2 29 -7 0 -21 3 -33 6 -12
3 -26 -1 -33 -10z m49 -26 c0 -13 -7 -20 -19 -20 -22 0 -35 15 -26 30 12 19
45 11 45 -10z m-9 -71 c25 -13 16 -29 -17 -29 -23 0 -32 18 -17 33 8 9 11 9
34 -4z"/>
<path d="M5660 3991 c-8 -6 -18 -7 -22 -5 -4 3 -7 -28 -7 -68 1 -40 4 -61 6
-46 4 25 7 27 35 21 23 -5 34 -2 45 12 18 26 16 59 -5 78 -21 19 -31 21 -52 8z
m48 -43 c4 -35 -29 -56 -52 -32 -19 19 -20 36 -4 52 21 21 53 10 56 -20z"/>
<path d="M6080 3985 c-16 -20 -6 -45 19 -45 24 0 37 -18 23 -32 -8 -8 -16 -7
-27 2 -18 15 -34 5 -18 -11 6 -6 23 -9 39 -7 23 2 29 8 29 28 0 17 -7 26 -24
30 -14 3 -27 12 -29 19 -4 11 3 13 29 8 32 -6 33 -6 15 8 -25 19 -40 19 -56 0z"/>
<path d="M6265 3990 c-4 -6 -11 -8 -16 -5 -5 4 -8 -16 -8 -47 1 -29 3 -42 6
-28 9 60 14 70 33 70 19 0 24 -10 33 -70 3 -19 5 -16 6 10 2 45 13 63 37 58
14 -2 20 -13 22 -46 3 -46 22 -59 22 -14 0 65 -32 99 -66 71 -11 -9 -18 -9
-26 -1 -15 15 -35 15 -43 2z"/>
<path d="M6442 3984 c-41 -28 -19 -94 32 -94 30 0 46 18 46 51 0 29 -23 59
-43 59 -7 0 -23 -7 -35 -16z m56 -38 c2 -16 -2 -32 -9 -37 -20 -12 -49 9 -49
35 0 29 9 38 35 34 14 -2 21 -12 23 -32z"/>
<path d="M6585 3990 c-3 -5 -12 -7 -20 -3 -12 4 -15 -5 -15 -46 0 -62 18 -68
22 -8 2 35 7 43 25 45 23 3 26 -3 36 -68 3 -14 5 -5 6 21 1 45 -11 69 -35 69
-7 0 -15 -4 -19 -10z"/>
<path d="M5150 3940 c0 -27 5 -50 10 -50 6 0 10 23 10 50 0 28 -4 50 -10 50
-5 0 -10 -22 -10 -50z"/>
<path d="M5500 3951 c0 -46 15 -61 58 -58 32 2 32 3 31 52 l-1 50 -8 -39 c-13
-68 -60 -72 -60 -5 0 21 -4 39 -10 39 -5 0 -10 -17 -10 -39z"/>
<path d="M6020 3940 c0 -27 5 -50 10 -50 6 0 10 23 10 50 0 28 -4 50 -10 50
-5 0 -10 -22 -10 -50z"/>
<path d="M447 3943 c-4 -3 -7 -21 -7 -39 0 -28 -4 -33 -27 -36 -26 -3 -28 -6
-28 -48 l0 -45 95 0 95 0 0 65 c0 63 -1 65 -26 68 -17 2 -29 11 -32 23 -4 13
-14 19 -34 19 -16 0 -33 -3 -36 -7z m53 -83 c0 -63 -2 -70 -20 -70 -18 0 -20
7 -20 70 0 63 2 70 20 70 18 0 20 -7 20 -70z m60 -20 c0 -43 -3 -50 -20 -50
-17 0 -20 7 -20 50 0 43 3 50 20 50 17 0 20 -7 20 -50z m-120 -20 c0 -23 -4
-30 -20 -30 -16 0 -20 7 -20 30 0 23 4 30 20 30 16 0 20 -7 20 -30z"/>
<path d="M762 3883 c-11 -32 -23 -66 -27 -75 -4 -10 -3 -18 3 -18 5 0 12 9 15
20 4 15 14 20 37 20 23 0 33 -5 37 -20 3 -11 10 -20 15 -20 6 0 8 6 5 13 -2 6
-14 40 -27 75 -12 34 -26 62 -30 62 -5 0 -17 -26 -28 -57z m42 -41 c-36 -9
-43 1 -27 38 l15 35 13 -35 c10 -29 10 -36 -1 -38z"/>
<path d="M1110 3865 c0 -43 4 -75 10 -75 6 0 10 32 10 75 0 43 -4 75 -10 75
-6 0 -10 -32 -10 -75z"/>
<path d="M1281 3899 c-6 -11 -7 -19 -2 -19 6 0 11 -19 13 -42 2 -34 7 -43 23
-46 18 -2 18 -2 3 8 -21 13 -25 77 -5 82 9 2 8 7 -4 19 -15 15 -17 15 -28 -2z"/>
<path d="M905 3890 c-4 -6 -11 -8 -16 -5 -5 4 -8 -16 -7 -47 l1 -53 6 45 c5
40 9 45 34 48 26 3 27 2 27 -42 0 -25 5 -46 10 -46 16 0 12 77 -6 94 -18 18
-40 21 -49 6z"/>
<path d="M1010 3885 c-11 -13 -8 -14 19 -9 24 5 31 3 31 -10 0 -10 -8 -16 -24
-16 -13 0 -29 -7 -36 -15 -19 -23 5 -45 46 -42 33 2 34 3 34 44 0 32 -5 45
-19 53 -26 14 -36 13 -51 -5z m50 -66 c-13 -24 -43 -22 -48 4 -3 13 3 17 28
17 28 0 30 -2 20 -21z"/>
<path d="M1420 3880 c-25 -25 -26 -52 -2 -73 23 -21 56 -22 72 -2 15 18 7 19
-19 3 -26 -16 -53 6 -49 41 2 19 10 27 27 29 13 2 27 -2 32 -9 4 -8 11 -11 14
-7 8 8 -23 38 -41 38 -8 0 -23 -9 -34 -20z"/>
<path d="M1542 3891 c-21 -13 -10 -44 17 -51 14 -3 26 -11 29 -18 5 -17 -27
-27 -41 -13 -17 17 -31 13 -17 -5 8 -8 25 -14 39 -12 36 4 37 49 2 58 -14 3
-27 12 -29 19 -4 11 3 13 28 8 28 -6 31 -5 20 8 -14 17 -29 19 -48 6z"/>
<path d="M1166 3853 c9 -21 18 -43 21 -50 2 -6 0 -21 -7 -32 -6 -12 -7 -21 -2
-21 5 0 23 32 40 70 32 72 30 99 -3 33 l-18 -38 -15 38 c-8 20 -19 37 -23 37
-5 0 -2 -17 7 -37z"/>
<path d="M1363 3840 c0 -30 2 -43 4 -27 2 15 2 39 0 55 -2 15 -4 2 -4 -28z"/>
<path d="M5390 3635 c-8 -10 -12 -39 -11 -72 2 -69 11 -85 11 -20 0 37 3 47
17 47 15 0 14 2 -3 15 -19 15 -19 15 0 30 11 8 15 15 9 15 -6 0 -16 -7 -23
-15z"/>
<path d="M5793 3575 c0 -44 2 -62 4 -40 3 22 10 46 16 54 9 11 9 13 0 8 -8 -5
-13 3 -16 25 -2 18 -4 -3 -4 -47z"/>
<path d="M6083 3575 c0 -44 2 -61 4 -37 2 23 2 59 0 80 -2 20 -4 1 -4 -43z"/>
<path d="M6500 3630 c-27 -27 -27 -90 0 -115 40 -36 96 7 70 55 -12 22 -49 27
-68 8 -9 -9 -12 -8 -12 8 0 24 9 38 35 52 11 6 14 12 8 12 -7 0 -22 -9 -33
-20z m61 -66 c17 -21 0 -49 -31 -49 -31 0 -48 28 -31 49 8 9 21 16 31 16 10 0
23 -7 31 -16z"/>
<path d="M7182 3575 c0 -66 2 -72 8 -37 3 24 3 60 -1 80 -5 28 -7 16 -7 -43z"/>
<path d="M4586 3627 c3 -10 9 -15 12 -12 3 3 0 11 -7 18 -10 9 -11 8 -5 -6z"/>
<path d="M4679 3614 c-5 -15 -8 -29 -5 -31 2 -2 8 10 14 26 13 38 5 41 -9 5z"/>
<path d="M4951 3618 c0 -10 -7 -18 -13 -18 -10 0 -10 -2 -1 -8 6 -4 13 -25 15
-47 2 -31 8 -41 23 -43 18 -2 18 -2 3 8 -12 7 -18 23 -18 45 0 24 5 35 18 38
15 4 15 5 0 6 -9 0 -19 9 -21 19 -4 16 -5 16 -6 0z"/>
<path d="M7102 3604 c-7 -8 -8 -14 -2 -14 5 0 10 -15 10 -33 0 -33 15 -57 35
-57 5 0 2 5 -7 11 -12 6 -18 22 -18 44 0 26 4 35 18 36 13 0 14 2 2 6 -8 3
-17 9 -20 13 -3 4 -11 2 -18 -6z"/>
<path d="M5708 3603 c-2 -5 -1 -24 3 -43 l6 -35 2 33 c1 23 6 32 19 32 14 0
15 2 2 10 -18 12 -28 12 -32 3z"/>
<path d="M6348 3603 c-2 -5 -1 -24 3 -43 l6 -35 2 33 c1 23 6 32 19 32 14 0
15 2 2 10 -18 12 -28 12 -32 3z"/>
<path d="M4606 3580 c3 -14 11 -32 16 -40 6 -10 7 -7 2 10 -3 14 -11 32 -16
40 -6 10 -7 7 -2 -10z"/>
<path d="M4733 3550 c0 -30 2 -43 4 -27 2 15 2 39 0 55 -2 15 -4 2 -4 -28z"/>
<path d="M4787 3593 c-15 -14 -5 -32 23 -42 17 -5 30 -17 30 -25 0 -19 -31
-21 -49 -3 -11 10 -13 9 -9 -3 3 -9 17 -15 34 -15 22 0 30 5 32 21 2 17 -5 24
-29 33 -22 7 -29 15 -25 26 6 16 3 19 -7 8z"/>
<path d="M4820 3596 c0 -2 7 -7 16 -10 8 -3 12 -2 9 4 -6 10 -25 14 -25 6z"/>
<path d="M4893 3550 c0 -30 2 -43 4 -27 2 15 2 39 0 55 -2 15 -4 2 -4 -28z"/>
<path d="M5022 3588 c-28 -28 -3 -88 37 -88 19 0 41 19 41 35 0 5 -5 2 -11 -7
-12 -21 -40 -23 -57 -6 -18 18 -15 55 6 67 9 6 12 11 7 11 -6 0 -16 -5 -23
-12z"/>
<path d="M5080 3593 c5 -2 10 -11 10 -18 0 -8 4 -17 10 -20 6 -4 7 2 1 16 -4
13 -13 24 -20 25 -6 1 -7 0 -1 -3z"/>
<path d="M5142 3545 l1 -50 6 44 c4 31 12 46 26 52 17 6 15 7 -7 6 -27 -1 -28
-3 -26 -52z"/>
<path d="M5222 3578 c2 -14 12 -24 27 -28 14 -3 26 -11 29 -18 6 -18 -28 -27
-52 -12 -20 11 -20 11 -4 -5 11 -12 24 -16 42 -11 37 9 34 41 -5 55 -22 7 -29
15 -25 26 3 8 1 15 -5 15 -6 0 -9 -10 -7 -22z"/>
<path d="M5265 3590 c3 -5 8 -10 11 -10 2 0 4 5 4 10 0 6 -5 10 -11 10 -5 0
-7 -4 -4 -10z"/>
<path d="M5448 3575 c-22 -50 38 -97 76 -59 9 8 15 25 15 37 -1 20 -2 21 -6 2
-12 -46 -54 -61 -73 -26 -14 27 -13 37 6 55 8 9 11 16 4 16 -6 0 -15 -11 -22
-25z"/>
<path d="M5500 3596 c0 -2 7 -7 16 -10 8 -3 12 -2 9 4 -6 10 -25 14 -25 6z"/>
<path d="M5571 3550 l2 -55 7 45 c4 25 4 49 -1 55 -5 5 -8 -13 -8 -45z"/>
<path d="M5847 3593 c6 -5 14 -29 16 -53 l4 -45 -1 49 c-1 35 -5 51 -16 53
-10 3 -11 2 -3 -4z"/>
<path d="M5910 3581 c-17 -32 -12 -36 38 -31 l47 4 -44 6 c-43 5 -44 6 -27 23
10 9 13 17 7 17 -6 0 -15 -9 -21 -19z"/>
<path d="M5972 3586 c7 -8 15 -12 17 -11 5 6 -10 25 -20 25 -5 0 -4 -6 3 -14z"/>
<path d="M6135 3590 c-3 -6 1 -7 9 -4 18 7 21 14 7 14 -6 0 -13 -4 -16 -10z"/>
<path d="M6188 3588 c19 -19 14 -27 -20 -30 -25 -2 -34 -8 -36 -26 -4 -27 23
-40 49 -24 13 9 19 8 22 -1 8 -18 8 58 1 77 -3 9 -11 16 -17 16 -7 0 -7 -4 1
-12z m12 -46 c0 -14 -23 -32 -42 -32 -11 0 -18 7 -18 20 0 16 7 20 30 20 17 0
30 -4 30 -8z"/>
<path d="M6245 3590 c-9 -15 12 -38 37 -42 12 -2 23 -9 26 -15 6 -20 -28 -28
-52 -13 -19 12 -20 12 -7 -3 17 -21 45 -22 61 -2 15 19 -3 45 -31 45 -24 0
-35 20 -18 31 9 6 10 9 2 9 -6 0 -15 -5 -18 -10z"/>
<path d="M6672 3546 c1 -47 2 -48 5 -11 3 22 9 45 14 51 5 7 3 11 -6 11 -12 0
-15 -12 -13 -51z"/>
<path d="M6729 3587 c6 -6 12 -29 13 -51 l1 -41 4 40 c3 22 8 44 13 50 5 6 -1
11 -17 12 -18 1 -22 -2 -14 -10z"/>
<path d="M6797 3593 c6 -5 14 -29 16 -53 l4 -45 -1 49 c-1 35 -5 51 -16 53
-10 3 -11 2 -3 -4z"/>
<path d="M6858 3575 c-22 -50 38 -97 76 -59 9 8 15 25 15 37 -1 20 -2 21 -6 2
-12 -46 -54 -61 -73 -26 -14 27 -13 37 6 55 8 9 11 16 4 16 -6 0 -15 -11 -22
-25z"/>
<path d="M6910 3596 c0 -2 7 -7 16 -10 8 -3 12 -2 9 4 -6 10 -25 14 -25 6z"/>
<path d="M6980 3550 c0 -29 2 -51 4 -49 8 8 10 88 3 95 -4 4 -7 -17 -7 -46z"/>
<path d="M7048 3588 c7 -7 13 -30 13 -52 2 -33 3 -35 6 -12 6 37 -4 76 -19 76
-9 0 -9 -3 0 -12z"/>
<path d="M7247 3589 c6 -8 13 -32 16 -54 4 -34 4 -32 3 9 -1 34 -6 51 -16 54
-12 4 -13 2 -3 -9z"/>
<path d="M7312 3578 c2 -14 12 -24 27 -28 14 -3 26 -11 29 -18 6 -18 -28 -27
-52 -12 -20 11 -20 11 -4 -5 11 -12 24 -16 42 -11 37 9 34 41 -5 55 -22 7 -29
15 -25 26 3 8 1 15 -5 15 -6 0 -9 -10 -7 -22z"/>
<path d="M7355 3590 c3 -5 8 -10 11 -10 2 0 4 5 4 10 0 6 -5 10 -11 10 -5 0
-7 -4 -4 -10z"/>
<path d="M4654 3546 c-3 -14 -10 -26 -15 -26 -5 0 -9 -4 -9 -10 0 -5 4 -10 9
-10 10 0 34 61 27 68 -3 2 -8 -7 -12 -22z"/>
<path d="M5919 3517 c7 -10 21 -17 31 -17 10 0 24 7 31 17 13 15 12 15 -8 2
-20 -12 -26 -12 -45 0 -21 13 -22 13 -9 -2z"/>
<path d="M5727 3509 c7 -7 15 -10 18 -7 3 3 -2 9 -12 12 -14 6 -15 5 -6 -5z"/>
<path d="M6367 3509 c7 -7 15 -10 18 -7 3 3 -2 9 -12 12 -14 6 -15 5 -6 -5z"/>
<path d="M384 3397 c-3 -8 -4 -45 -2 -83 l3 -69 95 0 95 0 0 65 0 65 -47 3
c-25 2 -52 10 -58 18 -16 18 -79 19 -86 1z m76 -22 c8 -9 30 -15 56 -15 l44 0
0 -50 0 -50 -80 0 -80 0 0 65 c0 62 1 65 24 65 13 0 29 -7 36 -15z"/>
<path d="M742 3323 c0 -43 3 -63 5 -45 4 27 8 32 32 32 54 0 73 62 25 80 -59
23 -64 17 -62 -67z m75 41 c7 -19 -23 -46 -47 -42 -8 2 -16 16 -18 31 -3 24 0
27 28 27 19 0 33 -6 37 -16z"/>
<path d="M1060 3390 c0 -5 5 -10 10 -10 6 0 10 5 10 10 0 6 -4 10 -10 10 -5 0
-10 -4 -10 -10z"/>
<path d="M1351 3359 c-6 -11 -7 -19 -2 -19 6 0 11 -19 13 -42 2 -34 7 -43 23
-46 18 -2 18 -2 3 8 -21 13 -25 77 -5 82 9 2 8 7 -4 19 -15 15 -17 15 -28 -2z"/>
<path d="M890 3350 c-8 -5 -18 -6 -22 -4 -4 3 -7 -19 -7 -48 1 -29 3 -44 6
-33 2 11 6 30 9 43 2 13 14 26 26 31 12 4 17 10 12 14 -6 3 -16 2 -24 -3z"/>
<path d="M946 3344 c-19 -18 -21 -65 -4 -82 29 -29 88 -2 88 39 0 22 -34 59
-54 59 -8 0 -22 -7 -30 -16z m62 -38 c5 -45 -38 -64 -58 -26 -18 33 -3 62 28
58 21 -2 28 -9 30 -32z"/>
<path d="M1120 3340 c-25 -25 -25 -52 -1 -74 22 -20 62 -18 69 4 4 13 3 13
-11 2 -19 -16 -57 -7 -57 14 0 10 12 14 40 14 44 0 52 16 22 43 -24 22 -38 21
-62 -3z m60 -15 c0 -10 -10 -15 -30 -15 -29 0 -38 9 -23 23 13 13 53 7 53 -8z"/>
<path d="M1240 3340 c-25 -25 -26 -52 -2 -73 23 -21 56 -22 72 -2 15 18 7 19
-19 3 -26 -16 -53 6 -49 41 2 19 10 27 27 29 13 2 27 -2 32 -9 4 -8 11 -11 14
-7 8 8 -23 38 -41 38 -8 0 -23 -9 -34 -20z"/>
<path d="M1442 3351 c-21 -13 -10 -44 17 -51 14 -3 26 -11 29 -18 5 -17 -27
-27 -41 -13 -17 17 -31 13 -17 -5 8 -8 25 -14 39 -12 36 4 37 49 2 58 -14 3
-27 12 -29 19 -4 11 3 13 28 8 28 -6 31 -5 20 8 -14 17 -29 19 -48 6z"/>
<path d="M1060 3286 c0 -42 -4 -66 -12 -69 -8 -3 -6 -6 5 -6 15 -1 17 9 17 69
0 39 -2 70 -5 70 -3 0 -5 -29 -5 -64z"/>
<path d="M417 2862 c-22 -24 -21 -45 1 -65 24 -22 45 -21 65 1 22 24 21 45 -1
65 -24 22 -45 21 -65 -1z m58 -32 c0 -18 -6 -26 -23 -28 -13 -2 -25 3 -28 12
-10 26 4 48 28 44 17 -2 23 -10 23 -28z"/>
<path d="M510 2871 c0 -5 7 -11 15 -15 20 -7 19 -43 -2 -55 -22 -12 -13 -24
11 -15 25 10 31 51 11 74 -19 21 -35 26 -35 11z"/>
<path d="M730 2850 c0 -5 9 -10 20 -10 18 0 20 -7 20 -65 0 -37 4 -65 10 -65
6 0 10 28 10 65 0 58 2 65 20 65 11 0 20 5 20 10 0 6 -22 10 -50 10 -27 0 -50
-4 -50 -10z"/>
<path d="M850 2800 c-25 -25 -25 -52 -1 -74 22 -20 62 -18 69 4 4 13 3 13 -11
2 -19 -16 -57 -7 -57 14 0 10 12 14 40 14 44 0 52 16 22 43 -24 22 -38 21 -62
-3z m60 -15 c0 -10 -10 -15 -30 -15 -29 0 -38 9 -23 23 13 13 53 7 53 -8z"/>
<path d="M973 2813 c-7 -2 -13 -9 -13 -14 0 -6 7 -6 18 -1 21 12 42 5 42 -14
0 -9 -11 -14 -29 -14 -34 0 -45 -12 -36 -40 5 -17 14 -20 46 -18 39 3 39 3 39
45 0 51 -27 73 -67 56z m45 -70 c-2 -10 -12 -18 -23 -18 -11 0 -21 8 -23 18
-3 13 3 17 23 17 20 0 26 -4 23 -17z"/>
<path d="M1093 2813 c-21 -4 -23 -10 -22 -56 1 -56 4 -54 14 6 5 32 10 38 28
35 18 -2 23 -11 25 -45 2 -24 7 -43 12 -43 5 0 10 19 12 43 2 35 7 43 26 45
20 3 22 -1 22 -42 0 -25 5 -46 10 -46 6 0 10 18 10 39 0 45 -23 76 -49 65 -19
-8 -31 -8 -51 -2 -8 3 -25 3 -37 1z"/>
<path d="M397 2742 c-18 -20 -23 -62 -8 -62 5 0 11 12 13 28 3 25 6 27 48 27
42 0 45 -2 48 -27 2 -16 8 -28 13 -28 16 0 10 46 -9 63 -25 23 -85 22 -105 -1z"/>
<path d="M536 2752 c-3 -6 1 -12 9 -16 8 -3 15 -17 15 -31 0 -14 5 -25 10 -25
6 0 10 11 10 23 0 26 -34 64 -44 49z"/>
<path d="M5273 2295 c0 -44 2 -61 4 -37 2 23 2 59 0 80 -2 20 -4 1 -4 -43z"/>
<path d="M5628 2338 c0 -18 0 -41 0 -51 1 -10 -3 -28 -9 -39 -7 -12 -7 -18 -1
-14 6 3 13 0 15 -6 3 -7 6 22 6 65 1 75 -7 110 -11 45z"/>
<path d="M6323 2295 c0 -44 2 -61 4 -37 2 23 2 59 0 80 -2 20 -4 1 -4 -43z"/>
<path d="M6480 2360 c0 -5 5 -10 10 -10 6 0 10 5 10 10 0 6 -4 10 -10 10 -5 0
-10 -4 -10 -10z"/>
<path d="M4592 2308 c-2 -60 13 -88 48 -88 35 0 50 28 48 88 l-1 57 -6 -59
c-4 -41 -11 -62 -23 -70 -32 -20 -52 4 -59 70 l-6 59 -1 -57z"/>
<path d="M5742 2348 c-7 -7 -12 -19 -12 -27 1 -12 4 -11 12 4 6 11 16 23 22
27 7 5 8 8 1 8 -6 0 -16 -5 -23 -12z"/>
<path d="M5820 2345 c7 -9 15 -13 17 -11 7 7 -7 26 -19 26 -6 0 -6 -6 2 -15z"/>
<path d="M6658 2323 c-2 -5 -1 -24 3 -43 l6 -35 2 33 c1 23 6 32 19 32 14 0
15 2 2 10 -18 12 -28 12 -32 3z"/>
<path d="M4732 2266 c1 -47 2 -48 5 -11 3 22 9 45 14 51 5 7 3 11 -6 11 -12 0
-15 -12 -13 -51z"/>
<path d="M4787 2313 c6 -5 14 -29 16 -53 l4 -45 -1 49 c-1 35 -5 51 -16 53
-10 3 -11 2 -3 -4z"/>
<path d="M4852 2265 l1 -50 6 44 c4 31 12 46 26 52 17 6 15 7 -7 6 -27 -1 -28
-3 -26 -52z"/>
<path d="M4932 2308 c-7 -7 -12 -24 -12 -38 0 -32 17 -50 45 -49 16 0 15 2 -7
11 -43 15 -36 38 12 38 44 0 53 17 23 41 -15 11 -16 11 -5 -1 20 -23 14 -30
-23 -30 -37 0 -43 8 -23 28 7 7 10 12 7 12 -3 0 -10 -5 -17 -12z"/>
<path d="M5045 2310 c-9 -14 3 -30 31 -40 13 -5 24 -16 24 -25 0 -18 -31 -20
-48 -3 -9 9 -12 9 -12 0 0 -14 44 -27 59 -17 22 13 11 43 -20 54 -22 7 -29 15
-25 26 6 17 0 20 -9 5z"/>
<path d="M5080 2316 c0 -2 7 -7 16 -10 8 -3 12 -2 9 4 -6 10 -25 14 -25 6z"/>
<path d="M5148 2295 c-22 -50 38 -97 76 -59 9 8 15 25 15 37 -1 20 -2 21 -6 2
-12 -46 -54 -61 -73 -26 -14 27 -13 37 6 55 8 9 11 16 4 16 -6 0 -15 -11 -22
-25z"/>
<path d="M5200 2316 c0 -2 7 -7 16 -10 8 -3 12 -2 9 4 -6 10 -25 14 -25 6z"/>
<path d="M5322 2289 c6 -16 12 -28 14 -26 5 5 -13 57 -20 57 -3 0 0 -14 6 -31z"/>
<path d="M5385 2309 c-4 -6 -5 -12 -2 -15 2 -3 7 2 10 11 7 17 1 20 -8 4z"/>
<path d="M5432 2308 c-7 -7 -12 -24 -12 -38 0 -32 17 -50 45 -49 16 0 15 2 -7
11 -43 15 -36 38 12 38 44 0 53 17 23 41 -15 11 -16 11 -5 -1 20 -23 14 -30
-23 -30 -37 0 -43 8 -23 28 7 7 10 12 7 12 -3 0 -10 -5 -17 -12z"/>
<path d="M5552 2308 c-19 -19 -15 -66 7 -78 11 -5 26 -10 33 -10 7 0 2 6 -12
13 -31 16 -39 56 -14 74 10 7 13 13 8 13 -6 0 -15 -5 -22 -12z"/>
<path d="M5883 2303 c-3 -10 -8 -21 -10 -25 -10 -19 6 -5 21 17 9 14 12 25 6
25 -6 0 -13 -8 -17 -17z"/>
<path d="M5943 2310 c20 -13 23 -50 5 -68 -17 -17 -45 -15 -57 6 -6 9 -11 12
-11 6 0 -21 29 -36 55 -30 42 11 46 83 4 93 -8 3 -7 0 4 -7z"/>
<path d="M6001 2270 l2 -55 7 45 c4 25 4 49 -1 55 -5 5 -8 -13 -8 -45z"/>
<path d="M6058 2313 c7 -3 13 -24 13 -51 l2 -47 7 43 c3 24 12 47 19 51 7 5
-1 8 -21 8 -18 1 -27 -1 -20 -4z"/>
<path d="M6135 2310 c3 -5 8 -10 11 -10 2 0 4 5 4 10 0 6 -5 10 -11 10 -5 0
-7 -4 -4 -10z"/>
<path d="M6192 2249 c0 -41 3 -59 5 -41 4 27 7 31 19 22 7 -7 25 -9 39 -6 42
11 46 82 4 94 -8 3 -6 -2 4 -10 23 -17 19 -56 -5 -72 -27 -16 -53 5 -53 42 0
17 -3 34 -7 38 -5 4 -7 -26 -6 -67z"/>
<path d="M6375 2310 c-3 -6 1 -7 9 -4 18 7 21 14 7 14 -6 0 -13 -4 -16 -10z"/>
<path d="M6428 2308 c19 -19 14 -27 -20 -30 -25 -2 -34 -8 -36 -26 -4 -27 23
-40 49 -24 13 9 19 8 22 -1 8 -18 8 58 1 77 -3 9 -11 16 -17 16 -7 0 -7 -4 1
-12z m12 -46 c0 -14 -23 -32 -42 -32 -11 0 -18 7 -18 20 0 16 7 20 30 20 17 0
30 -4 30 -8z"/>
<path d="M6531 2270 l2 -55 7 45 c4 25 4 49 -1 55 -5 5 -8 -13 -8 -45z"/>
<path d="M6597 2309 c6 -8 13 -32 16 -54 4 -34 4 -32 3 9 -1 34 -6 51 -16 54
-12 4 -13 2 -3 -9z"/>
<path d="M6742 2298 c2 -14 12 -24 27 -28 14 -3 26 -11 29 -18 6 -18 -28 -27
-52 -12 -20 11 -20 11 -4 -5 11 -12 24 -16 42 -11 37 9 34 41 -5 55 -22 7 -29
15 -25 26 3 8 1 15 -5 15 -6 0 -9 -10 -7 -22z"/>
<path d="M6785 2310 c3 -5 8 -10 11 -10 2 0 4 5 4 10 0 6 -5 10 -11 10 -5 0
-7 -4 -4 -10z"/>
<path d="M5726 2280 c9 -37 34 -60 64 -60 26 0 50 16 50 33 0 5 -7 1 -16 -7
-29 -30 -68 -17 -91 31 -11 25 -12 25 -7 3z"/>
<path d="M6153 2255 c0 -22 2 -30 4 -17 2 12 2 30 0 40 -3 9 -5 -1 -4 -23z"/>
<path d="M5342 2238 c2 -5 8 -9 13 -9 5 0 11 4 13 9 1 5 -4 9 -13 9 -9 0 -14
-4 -13 -9z"/>
<path d="M6677 2229 c7 -7 15 -10 18 -7 3 3 -2 9 -12 12 -14 6 -15 5 -6 -5z"/>
<path d="M5326 1929 c-75 -59 -83 -216 -14 -274 35 -30 101 -34 137 -9 30 21
51 71 44 107 -12 60 -101 98 -149 62 -29 -22 -33 -18 -23 23 8 38 39 72 66 72
7 0 25 -11 39 -25 14 -14 34 -25 44 -25 23 0 24 1 8 35 -24 53 -104 71 -152
34z m100 -164 c27 -27 26 -59 -4 -82 -37 -29 -102 1 -102 47 0 26 34 60 60 60
12 0 32 -11 46 -25z"/>
<path d="M5844 1941 c-28 -12 -54 -50 -54 -78 0 -13 10 -33 22 -45 14 -14 18
-23 10 -26 -22 -7 -44 -62 -37 -93 10 -44 49 -69 109 -69 58 0 92 18 107 57
12 31 -5 88 -28 102 -15 8 -14 12 5 36 28 35 28 57 -1 90 -25 30 -94 43 -133
26z m84 -47 c29 -20 28 -50 -4 -71 -24 -15 -29 -15 -53 -2 -32 18 -38 45 -15
70 21 23 42 24 72 3z m-4 -126 c56 -25 35 -98 -29 -98 -62 0 -86 78 -32 100
30 12 32 12 61 -2z"/>
<path d="M4663 1836 c-40 -57 -73 -113 -73 -125 0 -20 5 -21 80 -21 l80 0 0
-30 c0 -25 4 -30 25 -30 21 0 25 5 25 30 0 23 4 30 20 30 15 0 20 7 20 25 0
18 -5 25 -20 25 -19 0 -20 7 -20 100 l0 100 -32 0 c-30 -1 -39 -9 -105 -104z
m87 -26 l0 -70 -50 0 -50 0 46 70 c26 39 49 70 50 70 2 0 4 -31 4 -70z"/>
<path d="M4917 1918 c-3 -13 -9 -51 -13 -85 -7 -62 -6 -63 18 -63 14 0 31 7
38 15 16 20 64 19 84 -1 22 -21 20 -77 -2 -97 -25 -23 -65 -21 -87 3 -19 21
-65 28 -65 9 0 -6 13 -24 29 -40 24 -24 38 -29 76 -29 57 0 80 12 100 50 23
45 19 94 -12 130 -25 30 -30 32 -80 28 -45 -4 -53 -2 -53 13 0 43 10 49 76 49
57 0 64 2 64 20 0 18 -7 20 -84 20 -79 0 -84 -1 -89 -22z"/>
<path d="M5530 1920 c0 -18 7 -20 79 -20 l80 0 -59 -135 -59 -135 27 0 c25 1
31 10 85 138 31 76 57 145 57 155 0 15 -12 17 -105 17 -98 0 -105 -1 -105 -20z"/>
<path d="M5161 1643 c-15 -52 -14 -65 5 -61 9 2 24 24 34 51 l18 47 -23 0
c-19 0 -26 -8 -34 -37z"/>
<path d="M7150 1080 c0 -5 12 -10 27 -10 l28 0 -27 -27 c-27 -26 -28 -26 -48
-8 -21 19 -21 18 -57 -18 -44 -43 -37 -64 7 -22 29 28 30 28 50 10 20 -18 21
-18 55 15 l35 34 0 -27 c0 -15 5 -27 10 -27 6 0 10 20 10 45 l0 45 -45 0 c-25
0 -45 -4 -45 -10z"/>
<path d="M4590 1005 c0 -43 4 -75 10 -75 6 0 10 14 10 30 0 19 5 30 14 30 7 0
19 -13 26 -30 7 -16 16 -30 21 -30 12 0 11 4 -3 35 -9 19 -9 28 0 37 21 21 14
58 -14 68 -58 23 -64 17 -64 -65z m74 40 c6 -17 -19 -45 -40 -45 -9 0 -14 11
-14 30 0 25 4 30 24 30 13 0 26 -7 30 -15z"/>
<path d="M5083 1005 c-1 -61 1 -71 7 -42 8 45 23 62 44 54 11 -4 16 -19 16
-47 0 -22 5 -40 10 -40 6 0 10 20 10 44 0 54 -19 74 -55 58 -22 -10 -24 -9
-28 21 -2 18 -4 -4 -4 -48z"/>
<path d="M5663 1005 c0 -44 2 -68 4 -52 5 33 10 34 35 2 28 -36 44 -31 18 6
-21 29 -21 31 -5 50 10 10 13 19 8 19 -6 0 -16 -7 -23 -15 -20 -24 -29 -17
-33 28 -2 23 -4 6 -4 -38z"/>
<path d="M5826 1050 c-8 -16 -10 -30 -5 -30 5 0 9 -20 9 -45 0 -25 5 -45 10
-45 6 0 10 20 10 45 0 29 4 45 13 45 8 0 7 4 -3 10 -12 8 -13 13 -2 30 10 17
10 20 -2 20 -8 0 -21 -13 -30 -30z"/>
<path d="M6270 1070 c0 -5 5 -10 10 -10 6 0 10 5 10 10 0 6 -4 10 -10 10 -5 0
-10 -4 -10 -10z"/>
<path d="M6410 1070 c0 -5 5 -10 10 -10 6 0 10 5 10 10 0 6 -4 10 -10 10 -5 0
-10 -4 -10 -10z"/>
<path d="M6331 1039 c-7 -12 -7 -19 -1 -19 5 0 10 -18 10 -40 0 -27 5 -43 15
-47 23 -8 33 7 12 18 -20 12 -23 66 -4 71 9 2 8 7 -4 19 -15 15 -17 15 -28 -2z"/>
<path d="M4720 1020 c-25 -25 -26 -52 -2 -73 22 -20 53 -22 70 -5 20 20 15 76
-7 88 -28 14 -38 13 -61 -10z m60 -19 c20 -38 -13 -71 -46 -47 -12 9 -15 20
-10 39 8 32 40 36 56 8z"/>
<path d="M4971 1026 c-8 -9 -11 -25 -8 -36 3 -11 2 -22 -2 -24 -4 -3 -7 -19
-6 -38 0 -26 5 -34 27 -42 31 -11 58 5 58 34 0 19 -19 30 -51 30 -11 0 -17 5
-14 10 4 6 10 8 15 5 16 -10 39 7 49 36 7 21 7 29 -2 29 -7 0 -21 3 -33 6 -12
3 -26 -1 -33 -10z m49 -26 c0 -21 -33 -29 -45 -10 -9 15 4 30 26 30 12 0 19
-7 19 -20z m-9 -71 c25 -13 16 -29 -17 -29 -23 0 -32 18 -17 33 8 9 11 9 34
-4z"/>
<path d="M5432 1024 c-26 -18 -29 -56 -6 -79 19 -19 65 -16 72 3 3 11 0 12
-17 2 -17 -9 -26 -9 -37 1 -24 20 -16 29 26 29 44 0 52 16 22 43 -23 21 -32
21 -60 1z m56 -21 c2 -9 -7 -13 -27 -13 -30 0 -39 9 -24 24 11 10 46 3 51 -11z"/>
<path d="M5552 1024 c-26 -18 -29 -56 -6 -79 19 -19 65 -16 72 3 3 11 0 12
-17 2 -17 -9 -26 -9 -37 1 -24 20 -16 29 26 29 44 0 52 16 22 43 -23 21 -32
21 -60 1z m56 -21 c2 -9 -7 -13 -27 -13 -30 0 -39 9 -24 24 11 10 46 3 51 -11z"/>
<path d="M5906 1024 c-19 -18 -21 -65 -4 -82 17 -17 54 -15 72 4 23 22 20 60
-6 78 -28 20 -43 20 -62 0z m62 -33 c5 -31 -25 -56 -45 -40 -14 12 -18 51 -6
63 16 15 48 1 51 -23z"/>
<path d="M6050 1030 c-8 -5 -18 -6 -22 -4 -4 3 -7 -19 -7 -48 1 -53 1 -53 9
-14 4 22 16 45 25 53 21 15 17 26 -5 13z"/>
<path d="M6168 1029 c-21 -12 -24 -69 -6 -87 17 -17 53 -15 68 3 14 17 0 21
-16 5 -13 -13 -41 -4 -48 16 -15 38 34 70 62 42 9 -9 12 -9 12 0 0 11 -31 32
-47 32 -4 0 -16 -5 -25 -11z"/>
<path d="M6576 1024 c-19 -18 -21 -65 -4 -82 17 -17 53 -15 68 3 14 17 0 21
-16 5 -14 -14 -44 -2 -44 16 0 10 12 14 40 14 45 0 50 10 20 40 -24 24 -43 25
-64 4z m62 -21 c2 -9 -7 -13 -27 -13 -30 0 -39 9 -24 24 11 10 46 3 51 -11z"/>
<path d="M6715 1030 c-3 -5 -12 -7 -20 -3 -12 4 -15 -5 -15 -46 0 -62 18 -68
22 -8 2 35 7 43 25 45 23 3 26 -3 36 -68 3 -14 5 -5 6 21 1 45 -11 69 -35 69
-7 0 -15 -4 -19 -10z"/>
<path d="M6823 1033 c-25 -10 -14 -44 17 -55 17 -5 29 -15 27 -22 -5 -12 -22
-12 -52 0 -18 7 -18 6 -6 -9 17 -21 54 -22 71 -2 16 19 0 40 -35 49 -37 10
-31 30 6 22 27 -5 30 -4 19 9 -13 15 -25 17 -47 8z"/>
<path d="M4830 999 c0 -52 15 -68 60 -66 l40 1 0 48 c0 26 -4 48 -10 48 -5 0
-10 -16 -10 -35 0 -23 -6 -37 -18 -44 -26 -14 -42 4 -42 46 0 18 -4 33 -10 33
-5 0 -10 -14 -10 -31z"/>
<path d="M5254 1008 c4 -13 9 -35 12 -50 9 -39 31 -35 38 7 9 44 20 45 32 3
14 -47 30 -45 43 6 13 54 14 59 2 52 -4 -3 -12 -20 -16 -38 l-7 -33 -12 35
c-7 19 -19 35 -26 35 -8 0 -18 -16 -24 -35 l-10 -35 -10 38 c-5 20 -14 37 -19
37 -5 0 -6 -10 -3 -22z"/>
<path d="M6270 980 c0 -27 5 -50 10 -50 6 0 10 23 10 50 0 28 -4 50 -10 50 -5
0 -10 -22 -10 -50z"/>
<path d="M6410 980 c0 -27 5 -50 10 -50 6 0 10 23 10 50 0 28 -4 50 -10 50 -5
0 -10 -22 -10 -50z"/>
<path d="M6484 1021 l29 -6 -27 -31 c-36 -43 -33 -54 14 -54 22 0 40 5 40 10
0 6 -14 10 -32 10 l-31 0 19 23 c50 57 50 57 3 56 -38 -1 -40 -2 -15 -8z"/>
<path d="M5273 615 c0 -44 2 -61 4 -37 2 23 2 59 0 80 -2 20 -4 1 -4 -43z"/>
<path d="M5628 658 c0 -18 0 -41 0 -51 1 -10 -3 -28 -9 -39 -7 -12 -7 -18 -1
-14 6 3 13 0 15 -6 3 -7 6 22 6 65 1 75 -7 110 -11 45z"/>
<path d="M6323 615 c0 -44 2 -61 4 -37 2 23 2 59 0 80 -2 20 -4 1 -4 -43z"/>
<path d="M6480 680 c0 -5 5 -10 10 -10 6 0 10 5 10 10 0 6 -4 10 -10 10 -5 0
-10 -4 -10 -10z"/>
<path d="M4592 628 c-2 -60 13 -88 48 -88 35 0 50 28 48 88 l-1 57 -6 -59 c-7
-66 -27 -90 -58 -70 -13 8 -20 29 -24 70 l-6 59 -1 -57z"/>
<path d="M5742 668 c-7 -7 -12 -19 -12 -27 1 -12 4 -11 12 4 6 11 16 23 22 27
7 5 8 8 1 8 -6 0 -16 -5 -23 -12z"/>
<path d="M5820 665 c7 -9 15 -13 17 -11 7 7 -7 26 -19 26 -6 0 -6 -6 2 -15z"/>
<path d="M6658 643 c-2 -5 -1 -24 3 -43 l6 -35 2 33 c1 23 6 32 19 32 14 0 15
2 2 10 -18 12 -28 12 -32 3z"/>
<path d="M4732 586 c1 -47 2 -48 5 -11 3 22 9 45 14 51 5 7 3 11 -6 11 -12 0
-15 -12 -13 -51z"/>
<path d="M4787 633 c6 -5 14 -29 16 -53 l4 -45 -1 49 c-1 35 -5 51 -16 53 -10
3 -11 2 -3 -4z"/>
<path d="M4852 585 l1 -50 6 44 c4 31 12 46 26 52 17 6 15 7 -7 6 -27 -1 -28
-3 -26 -52z"/>
<path d="M4932 628 c-7 -7 -12 -24 -12 -38 0 -32 17 -50 45 -49 16 0 15 2 -7
11 -43 15 -36 38 12 38 44 0 53 17 23 41 -15 11 -16 11 -5 -1 20 -23 14 -30
-23 -30 -37 0 -43 8 -23 28 7 7 10 12 7 12 -3 0 -10 -5 -17 -12z"/>
<path d="M5045 630 c-9 -14 3 -30 31 -40 13 -5 24 -16 24 -25 0 -18 -31 -20
-48 -3 -9 9 -12 9 -12 0 0 -14 44 -27 59 -17 22 13 11 43 -20 54 -22 7 -29 15
-25 26 6 17 0 20 -9 5z"/>
<path d="M5080 636 c0 -2 7 -7 16 -10 8 -3 12 -2 9 4 -6 10 -25 14 -25 6z"/>
<path d="M5148 615 c-22 -50 38 -97 76 -59 9 8 15 25 15 37 -1 20 -2 21 -6 2
-12 -46 -54 -61 -73 -26 -14 27 -13 37 6 55 8 9 11 16 4 16 -6 0 -15 -11 -22
-25z"/>
<path d="M5200 636 c0 -2 7 -7 16 -10 8 -3 12 -2 9 4 -6 10 -25 14 -25 6z"/>
<path d="M5322 609 c6 -16 12 -28 14 -26 5 5 -13 57 -20 57 -3 0 0 -14 6 -31z"/>
<path d="M5385 629 c-4 -6 -5 -12 -2 -15 2 -3 7 2 10 11 7 17 1 20 -8 4z"/>
<path d="M5432 628 c-7 -7 -12 -24 -12 -38 0 -32 17 -50 45 -49 16 0 15 2 -7
11 -43 15 -36 38 12 38 44 0 53 17 23 41 -15 11 -16 11 -5 -1 20 -23 14 -30
-23 -30 -37 0 -43 8 -23 28 7 7 10 12 7 12 -3 0 -10 -5 -17 -12z"/>
<path d="M5552 628 c-19 -19 -15 -66 7 -78 11 -5 26 -10 33 -10 7 0 2 6 -12
13 -31 16 -39 56 -14 74 10 7 13 13 8 13 -6 0 -15 -5 -22 -12z"/>
<path d="M5883 623 c-3 -10 -8 -21 -10 -25 -10 -19 6 -5 21 17 9 14 12 25 6
25 -6 0 -13 -8 -17 -17z"/>
<path d="M5943 630 c20 -13 23 -50 5 -68 -17 -17 -45 -15 -57 6 -6 9 -11 12
-11 6 0 -21 29 -36 55 -30 42 11 46 83 4 93 -8 3 -7 0 4 -7z"/>
<path d="M6001 590 l2 -55 7 45 c4 25 4 49 -1 55 -5 5 -8 -13 -8 -45z"/>
<path d="M6058 633 c7 -3 13 -24 13 -51 l2 -47 7 43 c3 24 12 47 19 51 7 5 -1
8 -21 8 -18 1 -27 -1 -20 -4z"/>
<path d="M6135 630 c3 -5 8 -10 11 -10 2 0 4 5 4 10 0 6 -5 10 -11 10 -5 0 -7
-4 -4 -10z"/>
<path d="M6192 569 c0 -41 3 -59 5 -41 4 27 7 31 19 22 7 -7 25 -9 39 -6 42
11 46 82 4 94 -8 3 -6 -2 4 -10 23 -17 19 -56 -5 -72 -27 -16 -53 5 -53 42 0
17 -3 34 -7 38 -5 4 -7 -26 -6 -67z"/>
<path d="M6375 630 c-3 -6 1 -7 9 -4 18 7 21 14 7 14 -6 0 -13 -4 -16 -10z"/>
<path d="M6428 628 c19 -19 14 -27 -20 -30 -25 -2 -34 -8 -36 -26 -4 -27 23
-40 49 -24 13 9 19 8 22 -1 8 -18 8 58 1 77 -3 9 -11 16 -17 16 -7 0 -7 -4 1
-12z m12 -46 c0 -14 -23 -32 -42 -32 -11 0 -18 7 -18 20 0 16 7 20 30 20 17 0
30 -4 30 -8z"/>
<path d="M6531 590 l2 -55 7 45 c4 25 4 49 -1 55 -5 5 -8 -13 -8 -45z"/>
<path d="M6597 629 c6 -8 13 -32 16 -54 4 -34 4 -32 3 9 -1 34 -6 51 -16 54
-12 4 -13 2 -3 -9z"/>
<path d="M6742 618 c2 -14 12 -24 27 -28 14 -3 26 -11 29 -18 6 -18 -28 -27
-52 -12 -20 11 -20 11 -4 -5 11 -12 24 -16 42 -11 37 9 34 41 -5 55 -22 7 -29
15 -25 26 3 8 1 15 -5 15 -6 0 -9 -10 -7 -22z"/>
<path d="M6785 630 c3 -5 8 -10 11 -10 2 0 4 5 4 10 0 6 -5 10 -11 10 -5 0 -7
-4 -4 -10z"/>
<path d="M5726 600 c9 -37 34 -60 64 -60 26 0 50 16 50 33 0 5 -7 1 -16 -7
-29 -30 -68 -17 -91 31 -11 25 -12 25 -7 3z"/>
<path d="M6153 575 c0 -22 2 -30 4 -17 2 12 2 30 0 40 -3 9 -5 -1 -4 -23z"/>
<path d="M5342 558 c2 -5 8 -9 13 -9 5 0 11 4 13 9 1 5 -4 9 -13 9 -9 0 -14
-4 -13 -9z"/>
<path d="M6677 549 c7 -7 15 -10 18 -7 3 3 -2 9 -12 12 -14 6 -15 5 -6 -5z"/>
</g>
</svg>
